<?xml version="1.0" encoding="UTF-8" standalone="no"?>
<!DOCTYPE svg PUBLIC "-//W3C//DTD SVG 1.1//EN" "http://www.w3.org/Graphics/SVG/1.1/DTD/svg11.dtd">
<svg width="100%" height="100%" viewBox="0 0 250 405" version="1.1" xmlns="http://www.w3.org/2000/svg" xmlns:xlink="http://www.w3.org/1999/xlink" xml:space="preserve" xmlns:serif="http://www.serif.com/" style="fill-rule:evenodd;clip-rule:evenodd;stroke-linejoin:round;stroke-miterlimit:2;">
    <g id="Name">
        <path d="M250,384.243l-10.392,-0l-4.778,-8.242l-16.603,8.958c-9.237,0 -15.448,-3.344 -18.633,-10.033c-1.593,-3.265 -2.688,-6.789 -3.285,-10.571c-0.597,-3.782 -0.896,-7.724 -0.896,-11.825c0,-4.101 0.04,-7.127 0.12,-9.078c0.079,-1.951 0.278,-4.22 0.597,-6.808c0.318,-2.588 0.776,-4.758 1.374,-6.51c0.597,-1.752 1.453,-3.564 2.568,-5.435c1.114,-1.871 2.468,-3.364 4.061,-4.479c3.583,-2.469 8.242,-3.703 13.975,-3.703l16.364,-0l15.528,-0.956l-0,68.682Zm-15.528,-21.739l0,-32.012l-11.825,0c-4.38,0 -7.426,1.672 -9.138,5.017c-1.712,3.344 -2.568,8.341 -2.568,14.99c0,6.649 0.816,11.328 2.449,14.035c1.632,2.708 4.718,4.061 9.257,4.061l11.825,-6.091Z" style="fill-rule:nonzero;"/>
        <path d="M185.738,318.548l0,68.203c0,4.858 -1.533,9.038 -4.598,12.542c-3.066,3.504 -7.585,5.255 -13.558,5.255l-8.839,0l0,-13.139l5.973,0c3.663,0 5.494,-1.871 5.494,-5.613l0,-67.248l15.528,-0Zm-7.644,-28.548c3.742,0 6.171,0.577 7.286,1.732c1.115,1.155 1.672,3.583 1.672,7.286c0,3.703 -0.577,6.132 -1.732,7.286c-1.155,1.155 -3.583,1.732 -7.286,1.732c-3.703,0 -6.132,-0.597 -7.286,-1.791c-1.155,-1.195 -1.732,-3.624 -1.732,-7.287c-0,-3.663 0.577,-6.071 1.732,-7.226c1.154,-1.155 3.603,-1.732 7.346,-1.732Z" style="fill-rule:nonzero;"/>
        <path d="M154.682,384.243l-15.528,-0l0,-43.598c0,-3.902 -0.796,-6.57 -2.389,-8.003c-1.592,-1.433 -3.822,-2.15 -6.689,-2.15l-13.975,5.853l0,47.898l-15.528,-0l0,-68.204l11.587,0l3.583,8.122l19.111,-8.838c5.336,-0 9.974,1.97 13.916,5.912c3.941,3.942 5.912,9.695 5.912,17.26l0,45.748Z" style="fill-rule:nonzero;"/>
        <path d="M76.804,290c3.742,0 6.171,0.577 7.286,1.732c1.115,1.155 1.672,3.583 1.672,7.286c0,3.703 -0.577,6.132 -1.732,7.286c-1.155,1.155 -3.583,1.732 -7.286,1.732c-3.703,0 -6.132,-0.597 -7.286,-1.791c-1.155,-1.195 -1.732,-3.624 -1.732,-7.287c-0,-3.663 0.577,-6.071 1.732,-7.226c1.154,-1.155 3.603,-1.732 7.346,-1.732Zm7.644,94.243l-15.528,-0l0,-65.695l15.528,-0l0,65.695Z" style="fill-rule:nonzero;"/>
        <path d="M52.556,299.197l0,54.706c0,11.388 -2.349,19.41 -7.047,24.069c-4.698,4.658 -11.507,6.987 -20.425,6.987c-5.734,0 -10.532,-0.756 -14.394,-2.269c-3.862,-1.513 -7.425,-3.902 -10.69,-7.167l9.317,-10.153c1.353,1.354 3.404,2.489 6.151,3.404c2.747,0.916 5.893,1.374 9.436,1.374c3.544,0 6.271,-0.856 8.182,-2.568c1.912,-1.712 2.867,-4.917 2.867,-9.615l0,-58.768l16.603,0Z" style="fill-rule:nonzero;"/>
    </g>
    <g id="Icon">
        <path id="Box" d="M250,25l0,200c0,13.798 -11.202,25 -25,25l-200,0c-13.798,0 -25,-11.202 -25,-25l0,-200c0,-13.798 11.202,-25 25,-25l200,0c13.798,0 25,11.202 25,25Z" style="fill:url(#_Linear1);"/>
        <path id="Shadow" d="M250,123.448l0,101.552c0,13.798 -11.202,25 -25,25l-82.49,0l-59.926,-59.926c0.901,0.781 2.126,1.267 3.461,1.267l8.238,-0c2.716,-0 4.979,-2.013 4.979,-4.429l0,-47.109c0,-0.483 0.453,-0.885 0.996,-0.885l50.88,-0.081c0.544,0 0.996,0.403 0.996,0.886l0,47.35c0,2.416 2.264,4.429 4.98,4.429l8.238,-0c2.716,-0 4.98,-2.013 4.98,-4.429l-0,-47.431c-0,-0.483 0.452,-0.885 0.996,-0.885c-0,-0 12.674,-0.081 12.855,-0.161c0.544,-0.323 0.906,-0.886 0.906,-1.53l-0,-7.087c-0,-0.966 -0.906,-1.771 -2.083,-1.771l-12.584,-0l0,-0.081l-0.09,0l-0,-2.657c-0,-0.484 0.452,-0.886 0.996,-0.886l11.678,-0c1.087,-0 1.992,-0.805 1.992,-1.772l0,-7.167c0,-0.966 -0.905,-1.771 -1.992,-1.771l-11.678,-0c-0.544,-0 -0.996,-0.403 -0.996,-0.886l-0,-4.59c-0,-1.127 1.086,-2.174 2.535,-2.174l1.539,-0c1.086,-0 1.72,-1.047 1.991,-2.094l1.54,-4.751c0.181,-0.644 0.814,-1.208 1.539,-1.45c11.678,-2.576 16.477,-10.226 20.46,-22.225l0,-0.081c0.211,-1.426 -0.129,-2.31 -0.625,-2.864l50.689,50.689Zm-187.864,-30.601c2.181,1.893 4.755,3.456 7.793,4.519c0.634,0.241 1.358,0.483 1.992,0.644c0.906,0.161 1.268,0.886 1.449,1.369l1.539,4.751c0.271,1.127 1.086,2.094 1.992,2.094l1.539,-0c1.358,-0 2.444,0.966 2.535,2.174l-0,3.287l-18.839,-18.838Zm4.802,31.249c0.358,0.301 0.839,0.488 1.362,0.488l11.679,-0c0.543,-0 0.996,0.402 0.996,0.886l-0,1.932c-0,0.483 -0.453,0.886 -0.996,0.886l-8.849,0l-4.192,-4.192Zm0.017,14.376c0.272,0.268 0.618,0.446 0.983,0.446l12.131,-0c0.543,-0 0.996,0.402 0.996,0.885l0,12.779l-14.11,-14.11Zm85.36,-32.409l0,7.006c0,0.966 -0.633,1.691 -1.448,1.691l-16.296,-0c-0.815,-0 -1.449,-0.725 -1.449,-1.691l0,-7.006c0,-0.886 0.634,-1.691 1.449,-1.691l16.296,-0c0.724,0.08 1.448,0.805 1.448,1.691Zm-33.588,-0l0,7.006c0,0.885 -0.633,1.691 -1.448,1.691l-16.296,-0c-0.815,-0 -1.449,-0.725 -1.449,-1.691l0,-7.006c0,-0.886 0.634,-1.691 1.449,-1.691l16.296,-0c0.724,0.08 1.448,0.805 1.448,1.691Z" style="fill:#630b28;"/>
        <path id="Icon1" serif:id="Icon" d="M197.582,71.839l-0.543,-0c-26.617,8.858 -61.472,8.858 -71.16,8.697l-8.962,-0.161c-26.436,-0.967 -39.926,-11.113 -63.555,-21.662c-1.63,-0.725 -3.531,0.483 -3.35,2.174c0.181,5.798 1.72,30.117 19.917,36.479c0.634,0.241 1.358,0.483 1.992,0.644c0.906,0.161 1.268,0.886 1.449,1.369l1.539,4.751c0.271,1.127 1.086,2.094 1.992,2.094l1.539,-0c1.358,-0 2.444,0.966 2.535,2.174l-0,4.59c-0,0.483 -0.453,0.886 -0.996,0.886l-11.679,-0c-1.087,-0 -1.992,0.805 -1.992,1.771l0,7.167c0,0.967 0.905,1.772 1.992,1.772l11.679,-0c0.543,-0 0.996,0.402 0.996,0.886l-0,1.932c-0,0.483 -0.453,0.886 -0.996,0.886l-11.679,0c-1.087,0.081 -1.901,0.805 -1.901,1.772l-0,7.167c-0,0.805 0.724,1.691 1.539,1.691l12.131,-0c0.543,-0 0.996,0.402 0.996,0.885l0,47.109c0,2.416 2.264,4.429 4.98,4.429l8.238,-0c2.716,-0 4.979,-2.013 4.979,-4.429l0,-47.109c0,-0.483 0.453,-0.885 0.996,-0.885l50.88,-0.081c0.544,0 0.996,0.403 0.996,0.886l0,47.35c0,2.416 2.264,4.429 4.98,4.429l8.238,-0c2.716,-0 4.98,-2.013 4.98,-4.429l-0,-47.431c-0,-0.483 0.452,-0.885 0.996,-0.885c-0,-0 12.674,-0.081 12.855,-0.161c0.544,-0.323 0.906,-0.886 0.906,-1.53l-0,-7.087c-0,-0.966 -0.906,-1.771 -2.083,-1.771l-12.584,-0l0,-0.081l-0.09,0l-0,-2.657c-0,-0.484 0.452,-0.886 0.996,-0.886l11.678,-0c1.087,-0 1.992,-0.805 1.992,-1.772l0,-7.167c0,-0.966 -0.905,-1.771 -1.992,-1.771l-11.678,-0c-0.544,-0 -0.996,-0.403 -0.996,-0.886l-0,-4.59c-0,-1.127 1.086,-2.174 2.535,-2.174l1.539,-0c1.086,-0 1.72,-1.047 1.991,-2.094l1.54,-4.751c0.181,-0.644 0.814,-1.208 1.539,-1.45c11.678,-2.576 16.477,-10.226 20.46,-22.225l0,-0.081c0.453,-3.06 -1.629,-3.623 -2.354,-3.784Zm-45.267,34.224l0,7.006c0,0.966 -0.633,1.691 -1.448,1.691l-16.296,-0c-0.815,-0 -1.449,-0.725 -1.449,-1.691l0,-7.006c0,-0.886 0.634,-1.691 1.449,-1.691l16.296,-0c0.724,0.08 1.448,0.805 1.448,1.691Zm-33.588,-0l0,7.006c0,0.885 -0.633,1.691 -1.448,1.691l-16.296,-0c-0.815,-0 -1.449,-0.725 -1.449,-1.691l0,-7.006c0,-0.886 0.634,-1.691 1.449,-1.691l16.296,-0c0.724,0.08 1.448,0.805 1.448,1.691Z" style="fill:#fff;fill-rule:nonzero;"/>
    </g>
    <defs>
        <linearGradient id="_Linear1" x1="0" y1="0" x2="1" y2="0" gradientUnits="userSpaceOnUse" gradientTransform="matrix(1.53081e-14,250,-250,1.53081e-14,133.795,0)"><stop offset="0" style="stop-color:#f6cadc;stop-opacity:1"/><stop offset="1" style="stop-color:#7f0d18;stop-opacity:1"/></linearGradient>
    </defs>
</svg>
