<?xml version="1.0" encoding="UTF-8" standalone="no"?>
<!DOCTYPE svg PUBLIC "-//W3C//DTD SVG 1.1//EN" "http://www.w3.org/Graphics/SVG/1.1/DTD/svg11.dtd">
<svg width="100%" height="100%" viewBox="0 0 460 170" version="1.1" xmlns="http://www.w3.org/2000/svg" xmlns:xlink="http://www.w3.org/1999/xlink" xml:space="preserve" xmlns:serif="http://www.serif.com/" style="fill-rule:evenodd;clip-rule:evenodd;stroke-linejoin:round;stroke-miterlimit:2;">
    <g id="Name">
        <path d="M460,121.968l-10.392,0l-4.778,-8.241l-16.603,8.958c-9.237,0 -15.448,-3.344 -18.633,-10.033c-1.593,-3.265 -2.688,-6.789 -3.285,-10.571c-0.597,-3.783 -0.896,-7.724 -0.896,-11.825c0,-4.101 0.04,-7.127 0.12,-9.078c0.079,-1.951 0.278,-4.221 0.597,-6.809c0.318,-2.588 0.776,-4.758 1.374,-6.509c0.597,-1.752 1.453,-3.564 2.568,-5.435c1.114,-1.872 2.468,-3.365 4.061,-4.479c3.583,-2.469 8.242,-3.703 13.975,-3.703l16.364,-0l15.528,-0.956l0,68.681Zm-15.528,-21.739l0,-32.011l-11.825,-0c-4.38,-0 -7.426,1.672 -9.138,5.017c-1.712,3.344 -2.568,8.341 -2.568,14.99c0,6.649 0.816,11.327 2.449,14.035c1.632,2.707 4.718,4.061 9.257,4.061l11.825,-6.092Z" style="fill-rule:nonzero;"/>
        <path d="M395.738,56.273l0,68.204c0,4.857 -1.533,9.038 -4.598,12.542c-3.066,3.503 -7.585,5.255 -13.558,5.255l-8.839,0l0,-13.139l5.973,0c3.663,0 5.494,-1.871 5.494,-5.614l0,-67.248l15.528,0Zm-7.644,-28.547c3.742,-0 6.171,0.577 7.286,1.732c1.115,1.154 1.672,3.583 1.672,7.286c0,3.703 -0.577,6.131 -1.732,7.286c-1.155,1.155 -3.583,1.732 -7.286,1.732c-3.703,0 -6.132,-0.597 -7.286,-1.792c-1.155,-1.194 -1.732,-3.623 -1.732,-7.286c-0,-3.663 0.577,-6.072 1.732,-7.226c1.154,-1.155 3.603,-1.732 7.346,-1.732Z" style="fill-rule:nonzero;"/>
        <path d="M364.682,121.968l-15.528,0l0,-43.597c0,-3.902 -0.796,-6.57 -2.389,-8.003c-1.592,-1.433 -3.822,-2.15 -6.689,-2.15l-13.975,5.853l0,47.897l-15.528,0l0,-68.203l11.587,-0l3.583,8.122l19.111,-8.839c5.336,0 9.974,1.971 13.916,5.913c3.941,3.942 5.912,9.695 5.912,17.26l0,45.747Z" style="fill-rule:nonzero;"/>
        <path d="M286.804,27.726c3.742,-0 6.171,0.577 7.286,1.732c1.115,1.154 1.672,3.583 1.672,7.286c0,3.703 -0.577,6.131 -1.732,7.286c-1.155,1.155 -3.583,1.732 -7.286,1.732c-3.703,0 -6.132,-0.597 -7.286,-1.792c-1.155,-1.194 -1.732,-3.623 -1.732,-7.286c-0,-3.663 0.577,-6.072 1.732,-7.226c1.154,-1.155 3.603,-1.732 7.346,-1.732Zm7.644,94.242l-15.528,0l0,-65.695l15.528,0l0,65.695Z" style="fill-rule:nonzero;"/>
        <path d="M262.556,36.923l0,54.706c0,11.387 -2.349,19.41 -7.047,24.069c-4.698,4.658 -11.507,6.987 -20.425,6.987c-5.734,0 -10.532,-0.756 -14.394,-2.269c-3.862,-1.513 -7.425,-3.902 -10.69,-7.167l9.317,-10.153c1.353,1.354 3.404,2.488 6.151,3.404c2.747,0.916 5.893,1.374 9.436,1.374c3.544,-0 6.271,-0.856 8.182,-2.568c1.912,-1.712 2.867,-4.917 2.867,-9.616l0,-58.767l16.603,0Z" style="fill-rule:nonzero;"/>
    </g>
    <g id="Icon">
        <path id="Box" d="M170,17l0,136c0,9.383 -7.617,17 -17,17l-136,0c-9.383,0 -17,-7.617 -17,-17l0,-136c0,-9.383 7.617,-17 17,-17l136,0c9.383,0 17,7.617 17,17Z" style="fill:url(#_Linear1);"/>
        <path id="Shadow" d="M170,83.945l0,69.055c0,9.383 -7.617,17 -17,17l-56.093,0l-40.75,-40.75c0.613,0.531 1.446,0.862 2.353,0.862l5.603,-0c1.846,-0 3.385,-1.369 3.385,-3.012l0,-32.034c0,-0.328 0.308,-0.602 0.678,-0.602l34.598,-0.055c0.37,0 0.677,0.274 0.677,0.603l0,32.197c0,1.643 1.539,3.012 3.386,3.012l5.603,0c1.846,0 3.386,-1.369 3.386,-3.012l-0,-32.252c-0,-0.329 0.307,-0.603 0.677,-0.603c-0,0 8.619,-0.054 8.742,-0.109c0.369,-0.219 0.615,-0.602 0.615,-1.04l0,-4.819c0,-0.657 -0.615,-1.205 -1.416,-1.205l-8.557,0l0,-0.055l-0.061,0l-0,-1.807c-0,-0.328 0.307,-0.602 0.677,-0.602l7.941,0c0.739,0 1.355,-0.548 1.355,-1.205l-0,-4.873c-0,-0.657 -0.616,-1.205 -1.355,-1.205l-7.941,0c-0.37,0 -0.677,-0.274 -0.677,-0.602l-0,-3.121c-0,-0.767 0.738,-1.479 1.723,-1.479l1.047,0c0.739,0 1.17,-0.712 1.354,-1.424l1.047,-3.23c0.123,-0.438 0.554,-0.822 1.046,-0.986c7.942,-1.752 11.205,-6.954 13.914,-15.113l-0,-0.055c0.143,-0.97 -0.088,-1.571 -0.426,-1.948l34.469,34.469Zm-127.748,-20.809c1.483,1.288 3.234,2.35 5.3,3.073c0.431,0.164 0.923,0.328 1.354,0.438c0.616,0.109 0.862,0.602 0.985,0.931l1.047,3.23c0.185,0.767 0.739,1.424 1.354,1.424l1.047,0c0.923,0 1.662,0.657 1.724,1.479l-0,2.235l-12.811,-12.81Zm3.266,21.25c0.244,0.204 0.571,0.331 0.926,0.331l7.942,0c0.369,0 0.677,0.274 0.677,0.602l-0,1.315c-0,0.328 -0.308,0.602 -0.677,0.602l-6.018,-0l-2.85,-2.85Zm0.012,9.775c0.184,0.182 0.42,0.303 0.668,0.303l8.249,0c0.369,0 0.677,0.274 0.677,0.602l0,8.69l-9.594,-9.595Zm58.044,-22.038l0,4.764c0,0.657 -0.43,1.15 -0.985,1.15l-11.081,-0c-0.554,-0 -0.985,-0.493 -0.985,-1.15l0,-4.764c0,-0.603 0.431,-1.15 0.985,-1.15l11.081,-0c0.493,0.054 0.985,0.547 0.985,1.15Zm-22.839,-0l-0,4.764c-0,0.602 -0.431,1.15 -0.985,1.15l-11.082,-0c-0.554,-0 -0.985,-0.493 -0.985,-1.15l0,-4.764c0,-0.603 0.431,-1.15 0.985,-1.15l11.082,-0c0.492,0.054 0.985,0.547 0.985,1.15Z" style="fill:#630b28;"/>
        <path id="Icon1" serif:id="Icon" d="M134.356,48.85l-0.369,0c-18.1,6.024 -41.802,6.024 -48.389,5.914l-6.095,-0.109c-17.976,-0.657 -27.149,-7.557 -43.217,-14.73c-1.108,-0.493 -2.401,0.328 -2.278,1.478c0.123,3.943 1.17,20.48 13.544,24.806c0.431,0.164 0.923,0.328 1.354,0.438c0.616,0.109 0.862,0.602 0.985,0.931l1.047,3.23c0.185,0.767 0.739,1.424 1.354,1.424l1.047,0c0.923,0 1.662,0.657 1.724,1.479l-0,3.121c-0,0.328 -0.308,0.602 -0.677,0.602l-7.942,0c-0.739,0 -1.354,0.548 -1.354,1.205l-0,4.873c-0,0.657 0.615,1.205 1.354,1.205l7.942,0c0.369,0 0.677,0.274 0.677,0.602l-0,1.315c-0,0.328 -0.308,0.602 -0.677,0.602l-7.942,-0c-0.739,0.055 -1.293,0.547 -1.293,1.205l0,4.873c0,0.548 0.493,1.15 1.047,1.15l8.249,0c0.369,0 0.677,0.274 0.677,0.602l0,32.034c0,1.643 1.539,3.012 3.386,3.012l5.603,-0c1.846,-0 3.385,-1.369 3.385,-3.012l0,-32.034c0,-0.328 0.308,-0.602 0.678,-0.602l34.598,-0.055c0.37,0 0.677,0.274 0.677,0.603l0,32.197c0,1.643 1.539,3.012 3.386,3.012l5.603,0c1.846,0 3.386,-1.369 3.386,-3.012l-0,-32.252c-0,-0.329 0.307,-0.603 0.677,-0.603c-0,0 8.619,-0.054 8.742,-0.109c0.369,-0.219 0.615,-0.602 0.615,-1.04l0,-4.819c0,-0.657 -0.615,-1.205 -1.416,-1.205l-8.557,0l0,-0.055l-0.061,0l-0,-1.807c-0,-0.328 0.307,-0.602 0.677,-0.602l7.941,0c0.739,0 1.355,-0.548 1.355,-1.205l-0,-4.873c-0,-0.657 -0.616,-1.205 -1.355,-1.205l-7.941,0c-0.37,0 -0.677,-0.274 -0.677,-0.602l-0,-3.121c-0,-0.767 0.738,-1.479 1.723,-1.479l1.047,0c0.739,0 1.17,-0.712 1.354,-1.424l1.047,-3.23c0.123,-0.438 0.554,-0.822 1.046,-0.986c7.942,-1.752 11.205,-6.954 13.914,-15.113l-0,-0.055c0.307,-2.081 -1.108,-2.464 -1.601,-2.574Zm-30.782,23.273l0,4.764c0,0.657 -0.43,1.15 -0.985,1.15l-11.081,-0c-0.554,-0 -0.985,-0.493 -0.985,-1.15l0,-4.764c0,-0.603 0.431,-1.15 0.985,-1.15l11.081,-0c0.493,0.054 0.985,0.547 0.985,1.15Zm-22.839,-0l-0,4.764c-0,0.602 -0.431,1.15 -0.985,1.15l-11.082,-0c-0.554,-0 -0.985,-0.493 -0.985,-1.15l0,-4.764c0,-0.603 0.431,-1.15 0.985,-1.15l11.082,-0c0.492,0.054 0.985,0.547 0.985,1.15Z" style="fill:#fff;fill-rule:nonzero;"/>
    </g>
    <defs>
        <linearGradient id="_Linear1" x1="0" y1="0" x2="1" y2="0" gradientUnits="userSpaceOnUse" gradientTransform="matrix(1.04095e-14,170,-170,1.04095e-14,90.9806,0)"><stop offset="0" style="stop-color:#f6cadc;stop-opacity:1"/><stop offset="1" style="stop-color:#7f0d18;stop-opacity:1"/></linearGradient>
    </defs>
</svg>
