<?xml version="1.0" encoding="UTF-8" standalone="no"?>
<!DOCTYPE svg PUBLIC "-//W3C//DTD SVG 1.1//EN" "http://www.w3.org/Graphics/SVG/1.1/DTD/svg11.dtd">
<svg width="100%" height="100%" viewBox="0 0 500 500" version="1.1" xmlns="http://www.w3.org/2000/svg" xmlns:xlink="http://www.w3.org/1999/xlink" xml:space="preserve" xmlns:serif="http://www.serif.com/" style="fill-rule:evenodd;clip-rule:evenodd;stroke-linejoin:round;stroke-miterlimit:2;">
    <rect id="Icon" x="0" y="0" width="500" height="500" style="fill:none;"/>
    <clipPath id="_clip1">
        <rect x="0" y="0" width="500" height="500"/>
    </clipPath>
    <g clip-path="url(#_clip1)">
        <path d="M491.941,72.796l-1.81,-0c-88.724,29.526 -204.909,29.526 -237.199,28.989l-29.877,-0.536c-88.119,-3.222 -133.085,-37.043 -211.849,-72.206c-5.432,-2.416 -11.77,1.61 -11.166,7.247c0.604,19.327 5.734,100.39 66.392,121.596c2.112,0.805 4.526,1.61 6.639,2.147c3.018,0.537 4.225,2.953 4.828,4.563l5.131,15.837c0.905,3.758 3.621,6.979 6.639,6.979l5.13,0c4.527,0 8.148,3.221 8.45,7.248l-0,15.3c-0,1.61 -1.509,2.953 -3.32,2.953l-38.929,-0c-3.622,-0 -6.64,2.684 -6.64,5.905l0,23.89c0,3.221 3.018,5.905 6.64,5.905l38.929,-0c1.811,-0 3.32,1.342 3.32,2.953l-0,6.442c-0,1.61 -1.509,2.952 -3.32,2.952l-38.929,0c-3.622,0.269 -6.338,2.685 -6.338,5.906l0,23.889c0,2.685 2.414,5.637 5.13,5.637l40.439,0c1.811,0 3.32,1.342 3.32,2.953l-0,157.027c-0,8.053 7.544,14.764 16.597,14.764l27.462,-0c9.054,-0 16.598,-6.711 16.598,-14.764l0,-157.027c0,-1.611 1.509,-2.953 3.32,-2.953l169.6,-0.268c1.811,-0 3.32,1.342 3.32,2.952l-0,157.833c-0,8.053 7.544,14.764 16.598,14.764l27.462,-0c9.053,-0 16.598,-6.711 16.598,-14.764l-0,-158.101c-0,-1.611 1.508,-2.953 3.319,-2.953c0,0 42.249,-0.268 42.853,-0.537c1.811,-1.073 3.018,-2.952 3.018,-5.1l-0,-23.621c-0,-3.221 -3.018,-5.905 -6.941,-5.905l-41.948,-0l0,-0.269l-0.301,0l-0,-8.857c-0,-1.611 1.508,-2.953 3.319,-2.953l38.93,-0c3.621,-0 6.639,-2.684 6.639,-5.905l-0,-23.89c-0,-3.221 -3.018,-5.905 -6.639,-5.905l-38.93,-0c-1.811,-0 -3.319,-1.343 -3.319,-2.953l-0,-15.3c-0,-3.758 3.621,-7.248 8.449,-7.248l5.131,0c3.621,0 5.733,-3.489 6.639,-6.979l5.13,-15.837c0.604,-2.147 2.716,-4.026 5.13,-4.831c38.93,-8.59 54.924,-34.09 68.203,-74.085l-0,-0.268c1.508,-10.2 -5.432,-12.079 -7.847,-12.616Zm-150.89,114.08l0,23.352c0,3.221 -2.112,5.637 -4.828,5.637l-54.321,0c-2.716,0 -4.828,-2.416 -4.828,-5.637l-0,-23.352c-0,-2.953 2.112,-5.637 4.828,-5.637l54.321,-0c2.414,0.268 4.828,2.684 4.828,5.637Zm-111.96,-0l-0,23.352c-0,2.953 -2.112,5.637 -4.828,5.637l-54.321,0c-2.716,0 -4.828,-2.416 -4.828,-5.637l-0,-23.352c-0,-2.953 2.112,-5.637 4.828,-5.637l54.321,-0c2.414,0.268 4.828,2.684 4.828,5.637Z" style="fill:#7e0c1b;fill-rule:nonzero;"/>
    </g>
</svg>
