<?xml version="1.0" encoding="UTF-8" standalone="no"?>
<!DOCTYPE svg PUBLIC "-//W3C//DTD SVG 1.1//EN" "http://www.w3.org/Graphics/SVG/1.1/DTD/svg11.dtd">
<svg width="100%" height="100%" viewBox="0 0 500 500" version="1.1" xmlns="http://www.w3.org/2000/svg" xmlns:xlink="http://www.w3.org/1999/xlink" xml:space="preserve" xmlns:serif="http://www.serif.com/" style="fill-rule:evenodd;clip-rule:evenodd;stroke-linejoin:round;stroke-miterlimit:2;">
    <rect id="Logo" x="0" y="0" width="500" height="500" style="fill:none;"/>
    <path id="Box" d="M500,50l0,400c0,27.596 -22.404,50 -50,50l-400,0c-27.596,0 -50,-22.404 -50,-50l0,-400c0,-27.596 22.404,-50 50,-50l400,0c27.596,0 50,22.404 50,50Z" style="fill:url(#_Linear1);"/>
    <path id="Shadow" d="M500,246.897l0,203.103c0,27.596 -22.404,50 -50,50l-164.98,0l-119.852,-119.852c1.802,1.562 4.252,2.533 6.921,2.533l16.477,0c5.432,0 9.959,-4.026 9.959,-8.858l-0,-94.216c-0,-0.966 0.905,-1.772 1.992,-1.772l101.76,-0.161c1.086,0 1.992,0.806 1.992,1.772l-0,94.7c-0,4.831 4.526,8.858 9.958,8.858l16.478,-0c5.432,-0 9.958,-4.027 9.958,-8.858l0,-94.861c0,-0.967 0.906,-1.772 1.992,-1.772c0,0 25.35,-0.161 25.712,-0.322c1.086,-0.644 1.81,-1.771 1.81,-3.06l0,-14.173c0,-1.932 -1.81,-3.543 -4.164,-3.543l-25.169,0l0,-0.161l-0.181,0l0,-5.315c0,-0.966 0.906,-1.771 1.992,-1.771l23.358,-0c2.173,-0 3.983,-1.611 3.983,-3.543l0,-14.334c0,-1.933 -1.81,-3.543 -3.983,-3.543l-23.358,-0c-1.086,-0 -1.992,-0.806 -1.992,-1.772l0,-9.18c0,-2.255 2.173,-4.349 5.07,-4.349l3.078,0c2.173,0 3.441,-2.093 3.984,-4.187l3.078,-9.502c0.362,-1.289 1.63,-2.416 3.078,-2.899c23.358,-5.154 32.955,-20.454 40.922,-44.451l-0,-0.161c0.422,-2.854 -0.258,-4.622 -1.252,-5.729l101.379,101.379Zm-375.729,-61.204c4.362,3.788 9.511,6.914 15.588,9.039c1.267,0.483 2.716,0.966 3.983,1.288c1.811,0.322 2.535,1.772 2.898,2.738l3.078,9.502c0.543,2.255 2.173,4.187 3.983,4.187l3.078,0c2.716,0 4.889,1.933 5.07,4.349l0,6.575l-37.678,-37.678Zm9.606,62.5c0.716,0.602 1.677,0.975 2.723,0.975l23.358,-0c1.086,-0 1.991,0.805 1.991,1.771l0,3.866c0,0.966 -0.905,1.771 -1.991,1.771l-17.698,0l-8.383,-8.383Zm0.033,28.751c0.543,0.537 1.236,0.891 1.965,0.891l24.264,0c1.086,0 1.991,0.806 1.991,1.772l0,25.557l-28.22,-28.22Zm170.721,-64.819l-0,14.012c-0,1.933 -1.268,3.382 -2.897,3.382l-32.593,0c-1.629,0 -2.897,-1.449 -2.897,-3.382l0,-14.012c0,-1.771 1.268,-3.382 2.897,-3.382l32.593,0c1.448,0.161 2.897,1.611 2.897,3.382Zm-67.176,0l-0,14.012c-0,1.772 -1.268,3.382 -2.897,3.382l-32.593,0c-1.629,0 -2.897,-1.449 -2.897,-3.382l0,-14.012c0,-1.771 1.268,-3.382 2.897,-3.382l32.593,0c1.448,0.161 2.897,1.611 2.897,3.382Z" style="fill:#630b28;"/>
    <path id="Icon" d="M395.165,143.677l-1.087,0c-53.234,17.716 -122.945,17.716 -142.319,17.394l-17.926,-0.322c-52.872,-1.933 -79.851,-22.225 -127.109,-43.323c-3.26,-1.45 -7.062,0.966 -6.7,4.348c0.362,11.596 3.44,60.234 39.835,72.958c1.267,0.483 2.716,0.966 3.983,1.288c1.811,0.322 2.535,1.772 2.898,2.738l3.078,9.502c0.543,2.255 2.173,4.187 3.983,4.187l3.078,0c2.716,0 4.889,1.933 5.07,4.349l0,9.18c0,0.966 -0.905,1.772 -1.991,1.772l-23.358,-0c-2.173,-0 -3.984,1.61 -3.984,3.543l0,14.334c0,1.932 1.811,3.543 3.984,3.543l23.358,-0c1.086,-0 1.991,0.805 1.991,1.771l0,3.866c0,0.966 -0.905,1.771 -1.991,1.771l-23.358,0c-2.173,0.161 -3.803,1.611 -3.803,3.543l0,14.334c0,1.611 1.449,3.382 3.078,3.382l24.264,0c1.086,0 1.991,0.806 1.991,1.772l0,94.216c0,4.832 4.527,8.858 9.959,8.858l16.477,0c5.432,0 9.959,-4.026 9.959,-8.858l-0,-94.216c-0,-0.966 0.905,-1.772 1.992,-1.772l101.76,-0.161c1.086,0 1.992,0.806 1.992,1.772l-0,94.7c-0,4.831 4.526,8.858 9.958,8.858l16.478,-0c5.432,-0 9.958,-4.027 9.958,-8.858l0,-94.861c0,-0.967 0.906,-1.772 1.992,-1.772c0,0 25.35,-0.161 25.712,-0.322c1.086,-0.644 1.81,-1.771 1.81,-3.06l0,-14.173c0,-1.932 -1.81,-3.543 -4.164,-3.543l-25.169,0l0,-0.161l-0.181,0l0,-5.315c0,-0.966 0.906,-1.771 1.992,-1.771l23.358,-0c2.173,-0 3.983,-1.611 3.983,-3.543l0,-14.334c0,-1.933 -1.81,-3.543 -3.983,-3.543l-23.358,-0c-1.086,-0 -1.992,-0.806 -1.992,-1.772l0,-9.18c0,-2.255 2.173,-4.349 5.07,-4.349l3.078,0c2.173,0 3.441,-2.093 3.984,-4.187l3.078,-9.502c0.362,-1.289 1.63,-2.416 3.078,-2.899c23.358,-5.154 32.955,-20.454 40.922,-44.451l-0,-0.161c0.905,-6.12 -3.26,-7.247 -4.708,-7.57Zm-90.534,68.448l-0,14.012c-0,1.933 -1.268,3.382 -2.897,3.382l-32.593,0c-1.629,0 -2.897,-1.449 -2.897,-3.382l0,-14.012c0,-1.771 1.268,-3.382 2.897,-3.382l32.593,0c1.448,0.161 2.897,1.611 2.897,3.382Zm-67.176,0l-0,14.012c-0,1.772 -1.268,3.382 -2.897,3.382l-32.593,0c-1.629,0 -2.897,-1.449 -2.897,-3.382l0,-14.012c0,-1.771 1.268,-3.382 2.897,-3.382l32.593,0c1.448,0.161 2.897,1.611 2.897,3.382Z" style="fill:#fff;fill-rule:nonzero;"/>
    <defs>
        <linearGradient id="_Linear1" x1="0" y1="0" x2="1" y2="0" gradientUnits="userSpaceOnUse" gradientTransform="matrix(3.06162e-14,500,-500,3.06162e-14,267.59,0)"><stop offset="0" style="stop-color:#f6cadc;stop-opacity:1"/><stop offset="1" style="stop-color:#7f0d18;stop-opacity:1"/></linearGradient>
    </defs>
</svg>
