<?xml version="1.0" encoding="UTF-8" standalone="no"?>
<!DOCTYPE svg PUBLIC "-//W3C//DTD SVG 1.1//EN" "http://www.w3.org/Graphics/SVG/1.1/DTD/svg11.dtd">
<svg width="100%" height="100%" viewBox="0 0 664 300" version="1.1" xmlns="http://www.w3.org/2000/svg" xmlns:xlink="http://www.w3.org/1999/xlink" xml:space="preserve" xmlns:serif="http://www.serif.com/" style="fill-rule:evenodd;clip-rule:evenodd;stroke-linejoin:round;stroke-miterlimit:2;">
    <g>
        <path id="Name" d="M416,89.625l0,68.7c0,14.3 -2.95,24.375 -8.85,30.225c-5.9,5.85 -14.45,8.775 -25.65,8.775c-7.2,-0 -13.225,-0.95 -18.075,-2.85c-4.85,-1.9 -9.325,-4.9 -13.425,-9l11.7,-12.75c1.7,1.7 4.275,3.125 7.725,4.275c3.45,1.15 7.4,1.725 11.85,1.725c4.45,-0 7.875,-1.075 10.275,-3.225c2.4,-2.15 3.6,-6.175 3.6,-12.075l0,-73.8l20.85,-0Z" style="fill-rule:nonzero;"/>
        <path d="M446.45,78.075c4.7,-0 7.75,0.725 9.15,2.175c1.4,1.45 2.1,4.5 2.1,9.15c0,4.65 -0.725,7.7 -2.175,9.15c-1.45,1.45 -4.5,2.175 -9.15,2.175c-4.65,-0 -7.7,-0.75 -9.15,-2.25c-1.45,-1.5 -2.175,-4.55 -2.175,-9.15c0,-4.6 0.725,-7.625 2.175,-9.075c1.45,-1.45 4.525,-2.175 9.225,-2.175Zm9.6,118.35l-19.5,-0l0,-82.5l19.5,-0l0,82.5Z" style="fill-rule:nonzero;"/>
        <path d="M544.25,196.425l-19.5,-0l0,-54.75c0,-4.9 -1,-8.25 -3,-10.05c-2,-1.8 -4.8,-2.7 -8.4,-2.7l-17.55,7.35l0,60.15l-19.5,-0l0,-85.65l14.55,-0l4.5,10.2l24,-11.1c6.7,-0 12.525,2.475 17.475,7.425c4.95,4.95 7.425,12.175 7.425,21.675l0,57.45Z" style="fill-rule:nonzero;"/>
        <path d="M583.25,113.925l0,85.65c0,6.1 -1.925,11.35 -5.775,15.75c-3.85,4.4 -9.525,6.6 -17.025,6.6l-11.1,-0l0,-16.5l7.5,-0c4.6,-0 6.9,-2.35 6.9,-7.05l0,-84.45l19.5,-0Zm-9.6,-35.85c4.7,-0 7.75,0.725 9.15,2.175c1.4,1.45 2.1,4.5 2.1,9.15c0,4.65 -0.725,7.7 -2.175,9.15c-1.45,1.45 -4.5,2.175 -9.15,2.175c-4.65,-0 -7.7,-0.75 -9.15,-2.25c-1.45,-1.5 -2.175,-4.55 -2.175,-9.15c0,-4.6 0.725,-7.625 2.175,-9.075c1.45,-1.45 4.525,-2.175 9.225,-2.175Z" style="fill-rule:nonzero;"/>
        <path d="M663.95,196.425l-13.05,-0l-6,-10.35l-20.85,11.25c-11.6,-0 -19.4,-4.2 -23.4,-12.6c-2,-4.1 -3.375,-8.525 -4.125,-13.275c-0.75,-4.75 -1.125,-9.7 -1.125,-14.85c0,-5.15 0.05,-8.95 0.15,-11.4c0.1,-2.45 0.35,-5.3 0.75,-8.55c0.4,-3.25 0.975,-5.975 1.725,-8.175c0.75,-2.2 1.825,-4.475 3.225,-6.825c1.4,-2.35 3.1,-4.225 5.1,-5.625c4.5,-3.1 10.35,-4.65 17.55,-4.65l20.55,-0l19.5,-1.2l0,86.25Zm-19.5,-27.3l0,-40.2l-14.85,-0c-5.5,-0 -9.325,2.1 -11.475,6.3c-2.15,4.2 -3.225,10.475 -3.225,18.825c0,8.35 1.025,14.225 3.075,17.625c2.05,3.4 5.925,5.1 11.625,5.1l14.85,-7.65Z" style="fill-rule:nonzero;"/>
        <g id="Logo">
            <path id="Box" d="M300,30l-0,240c-0,16.557 -13.443,30 -30,30l-240,-0c-16.557,-0 -30,-13.443 -30,-30l0,-240c0,-16.557 13.443,-30 30,-30l240,0c16.557,0 30,13.443 30,30Z" style="fill:url(#_Linear1);"/>
            <path id="Shadow" d="M300,148.138l0,121.862c0,16.557 -13.443,30 -30,30l-98.988,-0l-71.911,-71.911c1.081,0.937 2.551,1.52 4.152,1.52l9.887,-0c3.259,-0 5.975,-2.416 5.975,-5.315l-0,-56.53c-0,-0.58 0.543,-1.063 1.195,-1.063l61.056,-0.096c0.652,-0 1.195,0.483 1.195,1.063l0,56.819c0,2.899 2.716,5.315 5.975,5.315l9.887,0c3.259,0 5.975,-2.416 5.975,-5.315l-0,-56.916c-0,-0.58 0.543,-1.063 1.195,-1.063c0,-0 15.21,-0.097 15.427,-0.193c0.652,-0.387 1.086,-1.063 1.086,-1.836l0,-8.504c0,-1.16 -1.086,-2.126 -2.498,-2.126l-15.101,0l-0,-0.097l-0.109,0l-0,-3.188c-0,-0.58 0.543,-1.063 1.195,-1.063l14.015,-0c1.303,-0 2.39,-0.967 2.39,-2.126l-0,-8.601c-0,-1.159 -1.087,-2.125 -2.39,-2.125l-14.015,-0c-0.652,-0 -1.195,-0.484 -1.195,-1.063l-0,-5.508c-0,-1.353 1.304,-2.61 3.042,-2.61l1.847,0c1.304,0 2.064,-1.256 2.39,-2.512l1.847,-5.701c0.217,-0.773 0.978,-1.45 1.847,-1.74c14.014,-3.092 19.772,-12.272 24.553,-26.67l-0,-0.097c0.253,-1.712 -0.155,-2.773 -0.751,-3.437l60.827,60.827Zm-225.437,-36.722c2.617,2.273 5.706,4.148 9.352,5.423c0.761,0.29 1.63,0.58 2.39,0.773c1.087,0.193 1.521,1.063 1.739,1.643l1.847,5.701c0.326,1.353 1.303,2.512 2.39,2.512l1.847,0c1.629,0 2.933,1.16 3.042,2.61l-0,3.945l-22.607,-22.607Zm5.763,37.5c0.43,0.361 1.007,0.585 1.634,0.585l14.015,-0c0.651,-0 1.195,0.483 1.195,1.063l-0,2.319c-0,0.58 -0.544,1.063 -1.195,1.063l-10.619,-0l-5.03,-5.03Zm0.02,17.251c0.326,0.321 0.742,0.534 1.179,0.534l14.558,0c0.652,0 1.195,0.483 1.195,1.063l0,15.335l-16.932,-16.932Zm102.432,-38.892l0,8.407c0,1.16 -0.76,2.029 -1.738,2.029l-19.555,0c-0.978,0 -1.738,-0.869 -1.738,-2.029l-0,-8.407c-0,-1.063 0.76,-2.029 1.738,-2.029l19.555,-0c0.869,0.097 1.738,0.966 1.738,2.029Zm-40.305,0l-0,8.407c-0,1.063 -0.761,2.029 -1.738,2.029l-19.556,0c-0.978,0 -1.738,-0.869 -1.738,-2.029l-0,-8.407c-0,-1.063 0.76,-2.029 1.738,-2.029l19.556,-0c0.869,0.097 1.738,0.966 1.738,2.029Z" style="fill:#630b28;"/>
            <path id="Icon" d="M237.099,86.206l-0.652,0c-31.94,10.63 -73.767,10.63 -85.392,10.437l-10.755,-0.194c-31.723,-1.159 -47.911,-13.335 -76.266,-25.994c-1.955,-0.869 -4.237,0.58 -4.02,2.609c0.218,6.958 2.065,36.141 23.901,43.775c0.761,0.29 1.63,0.58 2.39,0.773c1.087,0.193 1.521,1.063 1.739,1.643l1.847,5.701c0.326,1.353 1.303,2.512 2.39,2.512l1.847,0c1.629,0 2.933,1.16 3.042,2.61l-0,5.508c-0,0.579 -0.544,1.063 -1.195,1.063l-14.015,-0c-1.304,-0 -2.39,0.966 -2.39,2.125l-0,8.601c-0,1.159 1.086,2.126 2.39,2.126l14.015,-0c0.651,-0 1.195,0.483 1.195,1.063l-0,2.319c-0,0.58 -0.544,1.063 -1.195,1.063l-14.015,-0c-1.304,0.096 -2.282,0.966 -2.282,2.126l0,8.6c0,0.966 0.87,2.029 1.847,2.029l14.558,0c0.652,0 1.195,0.483 1.195,1.063l0,56.53c0,2.899 2.716,5.315 5.975,5.315l9.887,-0c3.259,-0 5.975,-2.416 5.975,-5.315l-0,-56.53c-0,-0.58 0.543,-1.063 1.195,-1.063l61.056,-0.096c0.652,-0 1.195,0.483 1.195,1.063l0,56.819c0,2.899 2.716,5.315 5.975,5.315l9.887,0c3.259,0 5.975,-2.416 5.975,-5.315l-0,-56.916c-0,-0.58 0.543,-1.063 1.195,-1.063c0,-0 15.21,-0.097 15.427,-0.193c0.652,-0.387 1.086,-1.063 1.086,-1.836l0,-8.504c0,-1.16 -1.086,-2.126 -2.498,-2.126l-15.101,0l-0,-0.097l-0.109,0l-0,-3.188c-0,-0.58 0.543,-1.063 1.195,-1.063l14.015,-0c1.303,-0 2.39,-0.967 2.39,-2.126l-0,-8.601c-0,-1.159 -1.087,-2.125 -2.39,-2.125l-14.015,-0c-0.652,-0 -1.195,-0.484 -1.195,-1.063l-0,-5.508c-0,-1.353 1.304,-2.61 3.042,-2.61l1.847,0c1.304,0 2.064,-1.256 2.39,-2.512l1.847,-5.701c0.217,-0.773 0.978,-1.45 1.847,-1.74c14.014,-3.092 19.772,-12.272 24.553,-26.67l-0,-0.097c0.543,-3.672 -1.956,-4.348 -2.825,-4.542Zm-54.321,41.069l0,8.407c0,1.16 -0.76,2.029 -1.738,2.029l-19.555,0c-0.978,0 -1.738,-0.869 -1.738,-2.029l-0,-8.407c-0,-1.063 0.76,-2.029 1.738,-2.029l19.555,-0c0.869,0.097 1.738,0.966 1.738,2.029Zm-40.305,0l-0,8.407c-0,1.063 -0.761,2.029 -1.738,2.029l-19.556,0c-0.978,0 -1.738,-0.869 -1.738,-2.029l-0,-8.407c-0,-1.063 0.76,-2.029 1.738,-2.029l19.556,-0c0.869,0.097 1.738,0.966 1.738,2.029Z" style="fill:#fff;fill-rule:nonzero;"/>
        </g>
    </g>
    <defs>
        <linearGradient id="_Linear1" x1="0" y1="0" x2="1" y2="0" gradientUnits="userSpaceOnUse" gradientTransform="matrix(1.83697e-14,300,-300,1.83697e-14,160.554,0)"><stop offset="0" style="stop-color:#f6cadc;stop-opacity:1"/><stop offset="1" style="stop-color:#7f0d18;stop-opacity:1"/></linearGradient>
    </defs>
</svg>
